<?xml version="1.0" encoding="iso-8859-1"?>
<!-- Generator: Adobe Illustrator 16.0.0, SVG Export Plug-In . SVG Version: 6.00 Build 0)  -->
<!DOCTYPE svg PUBLIC "-//W3C//DTD SVG 1.1//EN" "http://www.w3.org/Graphics/SVG/1.1/DTD/svg11.dtd">
<svg version="1.1" id="Capa_1" xmlns="http://www.w3.org/2000/svg" xmlns:xlink="http://www.w3.org/1999/xlink" x="0px" y="0px"
	 width="280.606px" height="280.606px" viewBox="0 0 280.606 280.606" style="enable-background:new 0 0 280.606 280.606;"
	 xml:space="preserve">
<g>
	<g>
		<path d="M274.475,193.574c-1.224-18.36-2.448-36.72-3.06-55.08c-22.645,22.032-49.572,42.228-77.112,56.916h-0.612
			c23.868,25.092,47.124,50.796,69.769,76.5c7.956-4.284,13.464-9.792,14.688-17.748
			C281.208,236.414,275.699,211.322,274.475,193.574z"/>
		<path d="M270.803,125.643c0-0.612,0.612-1.224,0.612-1.224c-1.836-2.448-3.672-4.896-6.12-6.732
			c-0.612,4.896-1.836,9.792-2.448,14.688c1.836-1.836,4.284-3.672,6.12-5.508C269.58,126.255,270.191,125.643,270.803,125.643z"/>
		<path d="M45.587,151.958c1.224,0.612,2.448,1.836,3.672,3.061c11.628,9.18,24.48,17.748,34.884,28.764
			c0.612,0.612,0.612,1.836,0.612,2.448c1.836-1.836,4.284-3.672,6.12-5.508c11.628-10.404,25.704-29.376,43.452-28.765
			c20.196,1.225,41.616,25.092,55.08,39.78c0-0.612,0.612-1.224,1.225-1.836c22.032-17.136,44.063-34.272,65.483-52.02
			c-0.611-0.612-0.611-1.224-0.611-1.836c7.344-31.824,7.344-63.036-1.836-94.248c-4.284-14.688-7.956-33.048-24.48-39.168
			c-11.016-3.672-29.376-1.224-41.616-1.836c-55.08-1.836-110.16,0-164.627,0.612c11.016,48.96,23.256,98.532,24.48,148.715
			C48.035,151.958,46.811,151.958,45.587,151.958z M208.379,113.403c-40.393,6.12-83.232,2.448-123.624,1.836
			c-3.06,0-3.06-4.284,0-4.896c40.392-1.836,82.62-6.732,122.399-2.448C210.215,108.507,211.439,113.403,208.379,113.403z
			 M219.395,76.683c2.448,0.612,1.836,4.896-0.611,4.284c-41.616-5.508-80.785-1.836-122.4,3.672c-2.448,0-3.672-3.672-1.224-3.672
			C136.163,73.623,178.391,66.279,219.395,76.683z M204.095,47.307c3.06,0,3.06,4.284,0,4.284
			c-42.84,4.284-85.68,5.508-128.52,6.732c-2.448,0-1.836-3.06,0-3.06C117.803,49.755,161.868,46.083,204.095,47.307z
			 M54.155,18.543c3.672,0,6.12,1.224,9.18,3.06c2.448-3.672,6.732-6.732,11.628-7.956c3.672-0.612,6.732,2.448,5.508,6.12
			c-1.836,6.12-4.896,15.3-11.628,17.136h-0.612c-3.06,1.224-7.956,1.224-10.404-0.612c-1.224-0.612-1.836-1.836-2.448-3.06
			c-3.06-2.448-4.896-5.508-5.508-9.792C49.259,20.991,51.707,18.543,54.155,18.543z"/>
		<path d="M147.792,166.646c-29.376-12.853-65.484,33.048-84.456,50.184c-16.524,14.688-32.436,29.988-50.184,43.452
			c15.912,11.628,45.9,7.956,63.648,9.18c19.584,1.225,39.78,3.061,59.364,4.284c22.032,1.836,83.232,12.853,118.116,2.448
			c-17.136-18.36-34.271-36.72-50.796-55.692C188.183,204.59,167.987,175.826,147.792,166.646z"/>
		<path d="M82.307,188.679c-0.612,0-1.224,0-1.224,0c-12.852-7.345-24.48-18.36-36.108-27.54
			c-12.852-10.404-26.316-20.809-37.332-33.048c-0.612-0.612-0.612-1.224,0-1.836c0.612-0.612,0.612-0.612,1.224,0
			c12.24,7.344,23.868,16.523,35.496,25.092c-4.284-17.748-7.344-36.108-10.404-54.468c-3.06,3.672-6.12,7.344-9.18,10.404
			c-5.508,6.12-11.016,12.24-17.136,18.36c0,0-0.612,0-0.612,0.612c0,22.031-1.836,43.451-2.448,65.483
			c-0.612,15.3-6.12,41.616-0.612,56.304c1.224,4.284,3.672,7.345,6.732,10.404C32.123,233.354,57.827,211.322,82.307,188.679z"/>
	</g>
</g>
<g>
</g>
<g>
</g>
<g>
</g>
<g>
</g>
<g>
</g>
<g>
</g>
<g>
</g>
<g>
</g>
<g>
</g>
<g>
</g>
<g>
</g>
<g>
</g>
<g>
</g>
<g>
</g>
<g>
</g>
</svg>
